<svg width="19" height="14" viewBox="0 0 19 14" fill="none" xmlns="http://www.w3.org/2000/svg">
<path d="M7.46021 1.17138C7.66795 1.37912 7.68683 1.7042 7.51686 1.93327L7.46021 1.9989L2.41293 7.04644L7.46021 12.094C7.66795 12.3017 7.68683 12.6268 7.51686 12.8559L7.46021 12.9215C7.25247 13.1292 6.9274 13.1481 6.69832 12.9781L6.6327 12.9215L1.1714 7.46019C0.963659 7.25246 0.944773 6.92738 1.11474 6.69831L1.1714 6.63268L6.6327 1.17138C6.86121 0.942872 7.2317 0.942872 7.46021 1.17138Z" fill="#20294C" stroke="#20294C" stroke-width="0.221053"/>
<path d="M17.5 7.72568C17.859 7.72568 18.15 7.43467 18.15 7.07568C18.15 6.7167 17.859 6.42568 17.5 6.42568V7.72568ZM2 7.72568H17.5V6.42568H2V7.72568Z" fill="#20294C"/>
</svg>
