<svg width="65" height="65" viewBox="0 0 65 65" fill="none" xmlns="http://www.w3.org/2000/svg">
<path d="M32.5 1.00012C37.7803 1.00012 42.976 2.32752 47.6092 4.86028C52.2425 7.39304 56.1647 11.0499 59.0154 15.4947C61.866 19.9394 63.5535 25.0295 63.9229 30.2969C64.2922 35.5643 63.3314 40.8401 61.1289 45.6391C58.9264 50.4382 55.5529 54.6066 51.3184 57.7611C47.0839 60.9157 42.1243 62.9551 36.8956 63.6919C31.6669 64.4288 26.3369 63.8394 21.3956 61.9779C16.4542 60.1165 12.06 57.0427 8.61707 53.0392" stroke="#111111" stroke-width="2"/>
<path d="M32.5 64.0001C24.1457 64.0001 16.1335 60.6814 10.2261 54.774C4.31874 48.8666 0.999999 40.8544 1 32.5001C1 24.1458 4.31874 16.1337 10.2261 10.2263C16.1335 4.31886 24.1457 1.00012 32.5 1.00012" stroke="black" stroke-opacity="0.09" stroke-width="2"/>
<circle cx="32.5" cy="32.5001" r="24.5" fill="#111111"/>
<path d="M38.854 32.1467C38.9006 32.1932 38.9375 32.2483 38.9627 32.3091C38.9879 32.3698 39.0009 32.4349 39.0009 32.5007C39.0009 32.5665 38.9879 32.6316 38.9627 32.6923C38.9375 32.7531 38.9006 32.8083 38.854 32.8547L38.9601 32.9608L38.9599 32.9609L34.9601 36.9608C34.838 37.0828 34.6726 37.1513 34.5 37.1513C34.3274 37.1513 34.162 37.0828 34.0399 36.9608C33.9179 36.8388 33.8494 36.6733 33.8494 36.5007C33.8494 36.3282 33.9179 36.1627 34.0399 36.0406L34.04 36.0406L36.9308 33.1507H25.5C25.3276 33.1507 25.1623 33.0822 25.0404 32.9603C24.9185 32.8384 24.85 32.6731 24.85 32.5007C24.85 32.3283 24.9185 32.163 25.0404 32.0411C25.1623 31.9192 25.3276 31.8507 25.5 31.8507H36.9308L34.04 28.9608L34.0399 28.9608C33.9179 28.8388 33.8494 28.6733 33.8494 28.5007C33.8494 28.3282 33.9179 28.1627 34.0399 28.0406C34.162 27.9186 34.3274 27.8501 34.5 27.8501C34.6726 27.8501 34.838 27.9186 34.9601 28.0406L38.9599 32.0405L38.9601 32.0406L38.854 32.1467ZM38.854 32.1467L34.854 28.1467C34.7601 28.0528 34.6328 28.0001 34.5 28.0001C34.3672 28.0001 34.2399 28.0528 34.146 28.1467C34.0521 28.2406 33.9994 28.3679 33.9994 28.5007C33.9994 28.6335 34.0521 28.7608 34.146 28.8547L38.854 32.1467Z" fill="#6D75D7" stroke="#6D75D7" stroke-width="0.3"/>
</svg>
