<svg width="17" height="10" viewBox="0 0 17 10" fill="none" xmlns="http://www.w3.org/2000/svg">
<path d="M8.31057 0.0817244C8.09784 0.196486 7.96523 0.414708 7.96523 0.652057L7.96523 4.34792L0.667678 4.34792C0.299195 4.34792 0.000136971 4.64004 0.000136971 4.99998C0.000136971 5.35991 0.299195 5.65203 0.667678 5.65203L7.96523 5.65203L7.96523 9.3479C7.96523 9.58611 8.09784 9.80434 8.31057 9.91823C8.52329 10.0339 8.78318 10.026 8.98879 9.89997L16.0523 5.55205C16.2463 5.43207 16.3638 5.22428 16.3638 4.99998C16.3638 4.77567 16.2463 4.56788 16.0523 4.4479L8.98879 0.0999821C8.8802 0.0339069 8.75648 -2.98023e-07 8.63277 -2.98023e-07C8.5224 -2.98023e-07 8.41114 0.0278209 8.31057 0.0817244Z" fill="white"/>
</svg>
